inDegrees=yes
name=ik_l_comf_01-000_00_orientations
DataType=double
version=3
OpenSimVersion=4.5
endheader
time	pelvis_tilt	pelvis_list	pelvis_rotation	pelvis_tx	pelvis_ty	pelvis_tz	hip_flexion_r	hip_adduction_r	hip_rotation_r	knee_angle_r	knee_angle_r_beta	ankle_angle_r	subtalar_angle_r	mtp_angle_r	hip_flexion_l	hip_adduction_l	hip_rotation_l	knee_angle_l	knee_angle_l_beta	ankle_angle_l	subtalar_angle_l	mtp_angle_l	lumbar_extension	lumbar_bending	lumbar_rotation	arm_flex_r	arm_add_r	arm_rot_r	elbow_flex_r	pro_sup_r	wrist_flex_r	wrist_dev_r	arm_flex_l	arm_add_l	arm_rot_l	elbow_flex_l	pro_sup_l	wrist_flex_l	wrist_dev_l
1	0.004063876328422857	0.01824637772177792	-89.99861278690932	0	0.9399999999999999	0	2.362514025911348	1.645687789691491	0.5692655281325255	0.03244971639684994	0.0005663543924634224	-7.648509160630536	0	0	2.63390169857563	-3.534111174480071	-0.72131258104087	0.2752155068605308	0.004803416747261305	-3.590406398170416	0	0	0	0	0	0	-2.889539323169602	0	52.16892070257914	48.07609087945354	0	0	0	-2.889539323169602	0	52.16892070257914	48.07609087945354	0	0
1.025	0.01464746486742889	0.02313637633197714	-89.99593401624007	0	0.9399999999999999	0	2.378744516702145	1.732093239686271	0.5571480233900306	0.0317520976713948	0.0005541786487806639	-7.8212563595701	0	0	2.680219749236094	-3.658696998476546	-0.7357516031040278	0.276306623773375	0.004822460329914632	-3.660553920844762	0	0	0	0	0	0	-2.891562619017008	0	52.17701203945252	48.07334921277203	0	0	0	-2.891562619017008	0	52.17701203945252	48.07334921277203	0	0
1.05	0.01675290269497819	0.02470939469153544	-89.99551840088688	0	0.9399999999999999	0	2.390987420678202	1.826739770801368	0.5465204762049002	0.03111207472702469	0.0005430081411130968	-7.996317300302868	0	0	2.713329443053548	-3.798695150645098	-0.7449442457473496	0.2734830534821895	0.00477317973167195	-3.725747761696197	0	0	0	0	0	0	-2.893595394797429	0	52.18513889273032	48.07059697999136	0	0	0	-2.893595394797429	0	52.18513889273032	48.07059697999136	0	0
1.075	0.01722840989004266	0.02546010692284957	-89.99527887080998	0	0.9399999999999999	0	2.396475763702911	1.918549976832467	0.5368672788597193	0.03049560109686325	0.0005322486465150579	-8.169280160861513	0	0	2.740301704337934	-3.942286368295921	-0.7555882502970779	0.2718909423148541	0.004745392149744177	-3.783196336855475	0	0	0	0	0	0	-2.895622736852543	0	52.19324122943891	48.06785467837637	0	0	0	-2.895622736852543	0	52.19324122943891	48.06785467837637	0	0
1.1	0.01704673897806993	0.02548093390935584	-89.99495208820278	0	0.9399999999999999	0	2.398670159443669	2.005775327756251	0.5284397425914786	0.02991338638955552	0.0005220870829190029	-8.339765137091511	0	0	2.765483961264313	-4.082267585316314	-0.7694463857775464	0.2717533382101158	0.004742990505052234	-3.841747744057288	0	0	0	0	0	0	-2.897640615771335	0	52.20130323993471	48.06512751239932	0	0	0	-2.897640615771335	0	52.20130323993471	48.06512751239932	0	0
1.125	0.01587033380539115	0.02487687151073733	-89.99483370542751	0	0.9399999999999999	0	2.397734482436081	2.078482322909482	0.5202123637681882	0.02935042935565278	0.0005122616291301388	-8.50985079447776	0	0	2.788064725110654	-4.214886499307479	-0.7860927953012674	0.2733070027261811	0.004770107066328978	-3.901656197420214	0	0	0	0	0	0	-2.899632290256386	0	52.20925759996696	48.06243843351828	0	0	0	-2.899632290256386	0	52.20925759996696	48.06243843351828	0	0
1.15	0.01480254452210062	0.02436824660268058	-89.99506900519128	0	0.9399999999999999	0	2.394986100027249	2.141893956717378	0.5095315575684058	0.02882065827931702	0.0005030153795662456	-8.678747870303885	0	0	2.804884335462793	-4.34106895458338	-0.8031918264093461	0.2753158358792817	0.004805167818973804	-3.952991774733731	0	0	0	0	0	0	-2.901599879974824	0	52.21711331765444	48.05978413869679	0	0	0	-2.901599879974824	0	52.21711331765444	48.05978413869679	0	0
1.175	0.01378486456329135	0.023843267332314	-89.99515159907939	0	0.9399999999999999	0	2.390101142285438	2.200702358809383	0.4977025490591186	0.02833692743144294	0.000494572683577379	-8.8489929175052	0	0	2.816974479129446	-4.460939456845028	-0.8212231469789388	0.2773644057633299	0.004840922108407642	-4.00214451073227	0	0	0	0	0	0	-2.903554175384984	0	52.22491334096512	48.05715017030381	0	0	0	-2.903554175384984	0	52.22491334096512	48.05715017030381	0	0
1.2	0.01324839342615128	0.02323237297203345	-89.99507999133503	0	0.9399999999999999	0	2.389886817399761	2.258240556177084	0.4854141300995069	0.02791528143960337	0.0004872135727419414	-9.022915249646079	0	0	2.820335465842955	-4.576856861144172	-0.8415262034703059	0.2782199685371457	0.004855854495768224	-4.051226302841272	0	0	0	0	0	0	-2.905492859631799	0	52.23264942204064	48.05453884144984	0	0	0	-2.905492859631799	0	52.23264942204064	48.05453884144984	0	0
1.225	0.01422557418335811	0.02384685202628765	-89.9948509926557	0	0.9399999999999999	0	2.398943938420159	2.321048861609132	0.4750759731774735	0.02755747724207919	0.0004809687114176884	-9.200073433209118	0	0	2.817607896076664	-4.692296170478317	-0.8608958003125708	0.2791784721728269	0.004872583540103196	-4.088339072144312	0	0	0	0	0	0	-2.907427017507122	0	52.24036612802455	48.05193498357583	0	0	0	-2.907427017507122	0	52.24036612802455	48.05193498357583	0	0
1.25	0.01422132438784122	0.02396293926436866	-89.99467286261438	0	0.9399999999999999	0	2.401938064383234	2.385029610868743	0.4645550295346143	0.02719650249337873	0.0004746685135363061	-9.37371847026766	0	0	2.813874806935611	-4.805958982155417	-0.8817635070207468	0.2809324967041086	0.004903197043334813	-4.125187640490632	0	0	0	0	0	0	-2.909358460269583	0	52.24806955305891	48.0493370403713	0	0	0	-2.909358460269583	0	52.24806955305891	48.0493370403713	0	0
1.274999999999999	0.01340407168531084	0.02374278960016439	-89.99478483580562	0	0.9399999999999999	0	2.393612127215875	2.445622448306944	0.4522841475048681	0.02681284361561216	0.0004679724029147731	-9.539744727385152	0	0	2.807376860749412	-4.918050460475208	-0.9030965261945887	0.283154040640559	0.004941970299503589	-4.159020687126346	0	0	0	0	0	0	-2.911284797104569	0	52.25574981119489	48.04674848835531	0	0	0	-2.911284797104569	0	52.25574981119489	48.04674848835531	0	0
1.299999999999999	0.01295401099330974	0.02362608777214782	-89.99506475376224	0	0.9399999999999999	0	2.382181463593255	2.502179382865542	0.4377033847936047	0.02645223980684428	0.0004616786791565415	-9.703061243513963	0	0	2.79743685288318	-5.030938978250044	-0.9230740193823397	0.2847935054030367	0.004970584357579251	-4.187401782978818	0	0	0	0	0	0	-2.913207147819076	0	52.26341223272176	48.04416714326251	0	0	0	-2.913207147819076	0	52.26341223272176	48.04416714326251	0	0
